<?xml version="1.0" encoding="UTF-8" standalone="no"?><!DOCTYPE svg PUBLIC "-//W3C//DTD SVG 1.1//EN" "http://www.w3.org/Graphics/SVG/1.1/DTD/svg11.dtd"><svg width="100%" height="100%" viewBox="0 0 2917 2917" version="1.1" xmlns="http://www.w3.org/2000/svg" style="fill-rule:evenodd;clip-rule:evenodd;stroke-linejoin:round;stroke-miterlimit:2;"><g><path d="M1080.5,618.94c20.726,-20.787 32.371,-48.921 32.371,-78.263c0,-29.342 -11.645,-57.499 -32.371,-78.263l-416.638,-418.374c-17.619,-17.8 -40.787,-29.062 -65.672,-31.907c-24.884,-2.826 -49.991,2.906 -71.18,16.286c-84.38,52.839 -165.449,110.818 -242.725,173.587l604.385,605.573l191.83,-188.639Z" style="fill-rule:nonzero;"/><path d="M2887.98,2389.37c13.32,-21.09 19.052,-46.076 16.267,-70.839c-2.785,-24.764 -13.926,-47.851 -31.605,-65.45l-418.069,-418.937c-20.706,-20.868 -48.88,-32.614 -78.263,-32.614c-29.383,0 -57.56,11.746 -78.263,32.614l-189.226,191.83l604.696,604.695l0.02,0c63.151,-76.693 121.435,-157.275 174.454,-241.294l-0.011,-0.005Z" style="fill-rule:nonzero;"/><path d="M2000.62,2133.26c-196.448,20.545 -562.743,-96.067 -841.944,-376.132c-279.196,-280.064 -396.09,-645.769 -376.132,-841.944c6.943,-7.81 15.339,-17.074 25.167,-27.205l-608.725,-608.725c-94.026,90.554 -170.698,191.829 -181.698,289.328c-108.498,932.204 1398.9,2439.6 2331.11,2331.1c96.63,-11.281 197.905,-86.803 289.328,-181.414l-609.914,-610.171c-10.414,10.232 -19.475,18.607 -27.185,25.166l-0.002,-0.007Z" style="fill-rule:nonzero;"/></g></svg>