<?xml version="1.0" encoding="UTF-8" standalone="no"?><!DOCTYPE svg PUBLIC "-//W3C//DTD SVG 1.1//EN" "http://www.w3.org/Graphics/SVG/1.1/DTD/svg11.dtd"><svg width="100%" height="100%" viewBox="0 0 2032 2048" version="1.1" xmlns="http://www.w3.org/2000/svg" xmlns:xlink="http://www.w3.org/1999/xlink" xml:space="preserve" style="fill-rule:evenodd;clip-rule:evenodd;stroke-linejoin:round;stroke-miterlimit:2;"><g><path d="M732.781,1519.94l-450.303,-0.172c-19.602,-0 -36.726,-13.269 -41.425,-32.354l-239.732,-950.127c-3.253,-12.753 -0.43,-26.365 7.709,-36.81c8.124,-10.359 20.533,-16.435 33.801,-16.435l509.177,-0.172c118.885,0 236.483,0.086 354.18,0.43l54.347,0.086c129.919,0.344 264.294,0.602 396.601,6.505l10.79,0.258c47.587,-0 71.731,-14.973 95.687,-59.065c52.972,-97.147 108.182,-190.186 166.645,-288.522c23.972,-40.394 48.188,-81.059 72.318,-122.396c11.133,-19 34.747,-26.451 54.949,-17.209l249.493,115.118c20.376,9.414 30.133,32.956 22.167,53.918l-57.601,153.032c-81.488,216.293 -161.773,429.395 -241.714,642.515c-17.882,47.759 -35.521,95.431 -53.144,143.275c-38.86,105.533 -77.721,211.146 -119.747,315.318c-14.716,36.553 -63.074,89.525 -112.209,90.043c-236.655,2.421 -473.376,2.751 -712.026,2.751l0.037,0.013Zm-416.923,-85.758l416.923,0.172c238.372,-0 474.77,-0.43 711.183,-2.909c6.161,-1.963 27.554,-21.392 33.644,-36.466c41.681,-103.398 80.285,-208.154 118.973,-312.839c17.639,-48.017 35.349,-95.945 53.317,-143.788c79.94,-213.128 160.137,-426.167 241.625,-642.625l43.644,-115.804l-178.192,-82.159c-17.711,30.047 -35.349,59.736 -52.972,89.352c-58.03,97.749 -112.811,190.015 -165.023,285.787c-39.118,71.73 -91.748,103.739 -170.929,103.739l-14.716,-0.344c-130.436,-5.732 -263.964,-5.99 -393.043,-6.334l-54.435,-0.086c-117.51,-0.329 -235.019,-0.415 -353.82,-0.415l-454.338,0.172l218.159,864.547Z" style="fill-rule:nonzero;"/><path d="M578.462,2047.89c-0.43,-0 -5.99,-0.086 -6.42,-0.086c-134.03,-3.682 -247.358,-120.004 -247.358,-254.119c0.086,-132.153 115.892,-250.781 247.788,-254.035l0.258,0c70.612,0 135.149,27.469 183.077,75.484c48.189,48.188 75.656,113.327 75.572,178.881c-0.244,137.64 -116.134,253.877 -252.916,253.877l-0.001,-0.002Zm-0.172,-422.645c-89.698,2.135 -167.932,82.504 -168.02,168.519c-0,87.39 76.686,166.127 164.077,168.518l4.112,0.086c88.923,0 167.074,-78.737 167.246,-168.449c0.086,-42.884 -18.398,-86.014 -50.58,-118.283c-31.925,-31.996 -74.552,-50.393 -116.839,-50.393l0.004,0.002Z" style="fill-rule:nonzero;"/><path d="M1256.59,2047.79l-2.049,-0c-135.751,-1.29 -247.7,-113.412 -249.578,-250.18c-1.031,-69.064 25.076,-133.946 73.437,-183.077c47.499,-48.189 110.588,-74.724 177.689,-74.724c138.059,1.289 250.095,113.239 251.97,249.834c1.031,67.102 -26.021,133.686 -74.038,182.476c-48.017,48.791 -111.021,75.671 -177.433,75.671l0.002,-0Zm1.032,-422.279c-45.537,0 -87.046,17.467 -118.284,49.22c-32.096,32.612 -49.476,75.828 -48.79,121.794c1.29,89.011 76.687,165.023 164.767,165.782l1.375,0c43.229,0 84.57,-17.796 116.406,-50.063c32.096,-32.612 50.151,-76.774 49.476,-121.192c-1.304,-89.026 -76.804,-164.781 -164.954,-165.541l0.004,0Z" style="fill-rule:nonzero;"/></g></svg>