<?xml version="1.0" encoding="UTF-8" standalone="no"?><!DOCTYPE svg PUBLIC "-//W3C//DTD SVG 1.1//EN" "http://www.w3.org/Graphics/SVG/1.1/DTD/svg11.dtd"><svg width="100%" height="100%" viewBox="0 0 2032 2048" version="1.1" xmlns="http://www.w3.org/2000/svg" xmlns:xlink="http://www.w3.org/1999/xlink" xml:space="preserve" style="fill-rule:evenodd;clip-rule:evenodd;stroke-linejoin:round;stroke-miterlimit:2;"><g><path d="M1299.18,1519.94l450.303,-0.172c19.602,-0 36.726,-13.269 41.424,-32.354l239.733,-950.127c3.253,-12.753 0.43,-26.365 -7.709,-36.81c-8.124,-10.359 -20.533,-16.435 -33.801,-16.435l-509.177,-0.172c-118.886,0 -236.483,0.086 -354.18,0.43l-54.347,0.086c-129.919,0.344 -264.294,0.602 -396.601,6.505l-10.79,0.258c-47.587,-0 -71.731,-14.973 -95.687,-59.065c-52.972,-97.147 -108.182,-190.186 -166.645,-288.522c-23.972,-40.394 -48.188,-81.059 -72.318,-122.396c-11.133,-19 -34.747,-26.451 -54.949,-17.209l-249.493,115.118c-20.376,9.414 -30.133,32.956 -22.167,53.918l57.601,153.032c81.488,216.293 161.773,429.395 241.714,642.515c17.882,47.759 35.521,95.431 53.144,143.275c38.86,105.533 77.721,211.146 119.747,315.318c14.715,36.553 63.074,89.525 112.209,90.043c236.655,2.421 473.376,2.751 712.026,2.751l-0.037,0.013Zm416.923,-85.758l-416.923,0.172c-238.372,-0 -474.77,-0.43 -711.183,-2.909c-6.161,-1.963 -27.554,-21.392 -33.644,-36.466c-41.681,-103.398 -80.285,-208.154 -118.973,-312.839c-17.639,-48.017 -35.349,-95.945 -53.317,-143.788c-79.94,-213.128 -160.137,-426.167 -241.625,-642.625l-43.644,-115.804l178.192,-82.159c17.71,30.047 35.349,59.736 52.972,89.352c58.03,97.749 112.811,190.015 165.023,285.787c39.117,71.73 91.748,103.739 170.929,103.739l14.716,-0.344c130.436,-5.732 263.964,-5.99 393.043,-6.334l54.435,-0.086c117.51,-0.329 235.019,-0.415 353.82,-0.415l454.338,0.172l-218.159,864.547Z" style="fill-rule:nonzero;"/><path d="M1453.5,2047.89c0.43,-0 5.99,-0.086 6.419,-0.086c134.031,-3.682 247.359,-120.004 247.359,-254.119c-0.086,-132.153 -115.892,-250.781 -247.788,-254.035l-0.258,0c-70.612,0 -135.149,27.469 -183.077,75.484c-48.189,48.188 -75.656,113.327 -75.572,178.881c0.244,137.64 116.134,253.877 252.916,253.877l0.001,-0.002Zm0.172,-422.645c89.698,2.135 167.932,82.504 168.02,168.519c0,87.39 -76.686,166.127 -164.077,168.518l-4.112,0.086c-88.923,0 -167.074,-78.737 -167.246,-168.449c-0.086,-42.884 18.398,-86.014 50.58,-118.283c31.925,-31.996 74.552,-50.393 116.838,-50.393l-0.003,0.002Z" style="fill-rule:nonzero;"/><path d="M775.363,2047.79l2.049,-0c135.751,-1.29 247.699,-113.412 249.578,-250.18c1.031,-69.064 -25.076,-133.946 -73.437,-183.077c-47.499,-48.189 -110.588,-74.724 -177.689,-74.724c-138.059,1.289 -250.095,113.239 -251.97,249.834c-1.031,67.102 26.021,133.686 74.038,182.476c48.017,48.791 111.021,75.671 177.433,75.671l-0.002,-0Zm-1.032,-422.279c45.537,0 87.045,17.467 118.283,49.22c32.097,32.612 49.477,75.828 48.791,121.794c-1.29,89.011 -76.687,165.023 -164.767,165.782l-1.375,0c-43.229,0 -84.57,-17.796 -116.406,-50.063c-32.096,-32.612 -50.151,-76.774 -49.476,-121.192c1.304,-89.026 76.804,-164.781 164.954,-165.541l-0.004,0Z" style="fill-rule:nonzero;"/></g></svg>