<?xml version="1.0" encoding="UTF-8" standalone="no"?><!DOCTYPE svg PUBLIC "-//W3C//DTD SVG 1.1//EN" "http://www.w3.org/Graphics/SVG/1.1/DTD/svg11.dtd"><svg width="100%" height="100%" viewBox="0 0 274 238" version="1.1" xmlns="http://www.w3.org/2000/svg" xmlns:xlink="http://www.w3.org/1999/xlink" xml:space="preserve" xmlns:serif="http://www.serif.com/" style="fill-rule:evenodd;clip-rule:evenodd;stroke-linejoin:round;stroke-miterlimit:2;"><path d="M136.563,33.438c-12.501,-14.688 -33.438,-33.438 -62.188,-33.438c-40.938,0 -74.375,33.438 -74.375,74.688c-0,9.687 1.875,19.374 5.625,28.124c6.562,16.25 39.062,48.75 84.375,92.813c16.562,15.937 30.625,30 37.5,37.812c2.5,2.813 5.625,4.063 9.375,4.063c3.75,-0 6.875,-1.563 9.375,-4.063c6.875,-7.812 21.25,-21.562 37.5,-37.812c45,-44.063 77.5,-76.563 84.375,-92.813c3.75,-9.062 5.625,-18.437 5.625,-28.125c-0.625,-41.25 -34.063,-74.687 -75,-74.687c-28.75,0 -49.688,18.75 -62.188,33.438Zm111.563,41.25c0,6.562 -1.25,12.812 -3.75,18.749c-5.313,12.813 -51.25,57.501 -78.438,84.376c-11.25,10.937 -21.562,21.25 -29.375,29.062c-7.812,-8.125 -18.125,-18.125 -29.375,-29.062c-27.5,-26.875 -73.437,-71.563 -78.437,-84.375c-2.5,-5.938 -3.75,-12.188 -3.75,-18.75c-0,-27.5 22.187,-49.688 49.688,-49.688c17.812,0 34.374,11.563 51.874,36.25c2.5,3.438 6.25,5.313 10.313,5.313c4.063,-0 7.813,-1.875 10.313,-5.313c17.187,-24.687 33.75,-36.25 51.562,-36.25c27.187,0 49.375,22.188 49.375,49.688Z" style="fill-rule:nonzero;"/></svg>