<?xml version="1.0" encoding="UTF-8" standalone="no"?><!DOCTYPE svg PUBLIC "-//W3C//DTD SVG 1.1//EN" "http://www.w3.org/Graphics/SVG/1.1/DTD/svg11.dtd"><svg width="100%" height="100%" viewBox="0 0 1179 2163" version="1.1" xmlns="http://www.w3.org/2000/svg" xmlns:xlink="http://www.w3.org/1999/xlink" xml:space="preserve" style="fill-rule:evenodd;clip-rule:evenodd;stroke-linejoin:round;stroke-miterlimit:2;"><g><path d="M588.265,1672.51c325.004,0 589.883,-787.299 589.883,-1113.56c-10.683,-203.109 -125.234,-386.398 -303.113,-484.999c-177.898,-98.607 -394.031,-98.607 -571.915,-0c-177.898,98.587 -292.448,281.876 -303.112,484.999c-1.633,326.22 263.248,1113.56 588.257,1113.56Zm0,-1397.1l0,0.018c75.54,-0.544 148.193,28.982 201.911,82.087c53.737,53.087 84.135,125.377 84.497,200.913c0.362,75.54 -29.345,148.118 -82.575,201.73c-53.212,53.593 -125.577,83.828 -201.112,84.009c-75.54,0.181 -148.049,-29.689 -201.531,-83.048c-53.486,-53.338 -83.535,-125.777 -83.535,-201.312c-0.544,-75.248 28.964,-147.575 81.975,-200.969c53.012,-53.394 125.141,-83.429 200.37,-83.41l0,-0.018Z" style="fill-rule:nonzero;"/><path d="M588.265,1886.18c-210.853,0 -381.481,61.756 -381.481,138.127c0,76.371 170.628,138.526 381.481,138.526c210.854,0 381.481,-62.155 381.481,-138.526c-0,-76.39 -170.627,-138.127 -381.481,-138.127Z" style="fill-rule:nonzero;"/></g></svg>