<?xml version="1.0" encoding="UTF-8"?>
<!DOCTYPE svg PUBLIC "-//W3C//DTD SVG 1.1//EN" "http://www.w3.org/Graphics/SVG/1.1/DTD/svg11.dtd">
<!-- Creator: CorelDRAW -->
<svg xmlns="http://www.w3.org/2000/svg" xml:space="preserve" width="701px" height="105px" style="shape-rendering:geometricPrecision; text-rendering:geometricPrecision; image-rendering:optimizeQuality; fill-rule:evenodd; clip-rule:evenodd"
viewBox="0 0 60.3966 9.09141"
 xmlns:xlink="http://www.w3.org/1999/xlink">
 <defs>
  
 </defs>
 <g id="Layer_x0020_1">
  <metadata id="CorelCorpID_0Corel-Layer"/>
  <g id="_258601952">
   <path id="_258603152" class="fil0" d="M50.5931 2.60825c1.90941,0 3.27818,1.36418 3.27818,3.24163 0,1.87745 -1.36866,3.24163 -3.27818,3.24163 -1.90961,0 -3.27838,-1.36418 -3.27838,-3.24163 0,-1.87745 1.36877,-3.24163 3.27838,-3.24163zm0 4.98043c0.675934,0 1.24244,-0.391919 1.49408,-1.00606 0.177636,-0.433147 0.177636,-1.03233 0,-1.46557 -0.549603,-1.34108 -2.43794,-1.34281 -2.98826,0 -0.177738,0.433249 -0.177738,1.03243 0,1.46557 0.252864,0.617095 0.815396,1.00606 1.49418,1.00606z"/>
   <path id="_258603776" class="fil0" d="M40.1024 0l1.65176 0 0 2.67035 -0.100779 0.86945 0.100779 0c0.151372,-0.256733 0.386728,-0.476207 0.706167,-0.658323 0.31944,-0.182115 0.714515,-0.273224 1.18523,-0.273224 0.797276,0 1.53113,0.344991 2.07412,0.912816 0.602945,0.630532 0.888995,1.47077 0.888995,2.32882 0,0.857947 -0.28605,1.69839 -0.888995,2.32871 -0.542986,0.567825 -1.27684,0.912918 -2.07412,0.912918 -0.47071,0 -0.865785,-0.0911085 -1.18523,-0.273224 -0.31944,-0.182217 -0.554795,-0.40159 -0.706167,-0.658323l-0.100779 0 0 0.732838 -1.55098 0 0 -8.8928zm3.20274 7.58868c0.682041,0 1.25048,-0.406782 1.51301,-1.01838 0.185984,-0.432842 0.185984,-1.008 0,-1.44074 -0.262535,-0.6117 -0.830869,-1.01848 -1.51301,-1.01848 -0.689473,0 -1.24641,0.384997 -1.51301,1.00596 -0.0925337,0.215403 -0.13875,0.459615 -0.13875,0.732838 0,0.273224 0.0462159,0.517537 0.13875,0.732737 0.266607,0.620963 0.823641,1.00606 1.51301,1.00606z"/>
   <path id="_258603608" class="fil0" d="M32.4425 0l1.65176 0 -0.100881 3.60179 0.100881 0c0.176516,-0.289715 0.430806,-0.527819 0.762868,-0.714108 0.332063,-0.186289 0.70403,-0.279433 1.1158,-0.279433 0.798599,0 1.38913,0.231792 1.77168,0.695581 0.38235,0.463585 0.573627,1.09707 0.573627,1.90025l0 3.68872 -1.65176 0 0 -3.49002c0,-0.74312 -0.335524,-1.29171 -1.14736,-1.29171 -0.698329,0 -1.14929,0.482417 -1.33029,1.11152 -0.0630125,0.219475 -0.0945696,0.453405 -0.0945696,0.70179l0 2.96841 -1.65176 0 0 -8.8928z"/>
   <path id="_258603392" class="fil0" d="M31.4339 7.34019c-0.26905,0.513465 -0.645191,0.933582 -1.12852,1.26066 -0.483435,0.327176 -1.08648,0.490663 -1.80934,0.490663 -1.35848,0 -2.51103,-0.69273 -3.03254,-1.94372 -0.163792,-0.393345 -0.245739,-0.825983 -0.245739,-1.29791 0,-1.87745 1.36877,-3.24163 3.27828,-3.24163 0.714413,0 1.31553,0.16145 1.80303,0.484351 0.487609,0.322901 0.844713,0.741084 1.07172,1.25445l-1.51301 0.620963c-0.292362,-0.575867 -0.729988,-0.856929 -1.38699,-0.856929 -0.673287,0 -1.23551,0.40444 -1.47525,1.01848 -0.169085,0.433045 -0.169085,1.00759 0,1.44074 0.239834,0.613837 0.801959,1.01838 1.47525,1.01838 0.671658,0 1.15662,-0.298978 1.45,-0.894289l1.51311 0.645802z"/>
   <path id="_258603584" class="fil0" d="M19.8842 3.60179l0.100779 0c0.417878,-0.661987 1.12364,-0.993541 1.90402,-0.993541 1.62031,0 2.32006,1.11091 2.32006,2.59583l0 3.68872 -1.65176 0 0 -3.49002c0,-0.776815 -0.316386,-1.29171 -1.16008,-1.29171 -0.433656,0 -0.783024,0.187002 -1.04016,0.527819 -0.270373,0.357919 -0.372069,0.833821 -0.372069,1.27308l0 2.98083 -1.65176 0 0 -5.8565c0.128977,-0.0680006 0.252457,-0.144857 0.369728,-0.229349l1.18126 0 0 0.794833z"/>
   <path id="_258603272" class="fil0" d="M15.3702 7.99556l-0.100881 0c-0.417674,0.730192 -1.12364,1.09595 -1.90391,1.09595 -0.781701,0 -1.36388,-0.260296 -1.74633,-0.780887 -0.382452,-0.520591 -0.573729,-1.21464 -0.573729,-2.08226l0 -2.80828 0.122869 0c0.226906,0.0820486 0.465213,0.136612 0.711868,0.160127 0.050186,0.0134372 0.100881,0.0255511 0.151983,0.0363416 0.21296,0.0712581 0.435489,0.118288 0.665041,0.138444l0 2.2542c0,0.856827 0.316284,1.42475 1.16008,1.42475 0.433554,0 0.782923,-0.206445 1.04016,-0.582178 0.270272,-0.394871 0.371967,-0.919636 0.371967,-1.40419l0 -1.54854c0.422968,-0.0712581 0.779156,-0.230571 1.15214,-0.447806 0.176109,-0.0889708 0.343158,-0.195044 0.499621,-0.316284l0 5.73739 -1.55088 0 0 -0.87678z"/>
   <path id="_258603512" class="fil0" d="M-0.000101797 2.15983l1.55098 0 0 0.87678 0.100779 0c0.193415,-0.328805 0.456052,-0.593681 0.788114,-0.794629 0.438135,-0.264978 0.937858,-0.345907 1.43178,-0.280451l0.0370542 0.0190361c0.259685,0.151067 0.541256,0.263451 0.838097,0.330128 0.309667,0.234846 0.530567,0.522525 0.662496,0.862935 0.159923,-0.279637 0.374512,-0.526495 0.643868,-0.74027 0.195756,0.0303356 0.377261,0.0345093 0.573322,0.0345093 0.125618,0.0454016 0.254798,0.0824558 0.387033,0.110348l0.0513058 0.0165929c0.334811,0.13763 0.696802,0.214894 1.07498,0.219068 0.126025,0.0456052 0.255715,0.0827612 0.388255,0.110755 0.162367,0.0541561 0.330332,0.0941624 0.502777,0.119001 0.0701383,0.020563 0.141295,0.0384794 0.213265,0.0538507 0.074821,0.0241259 0.146486,0.0549705 0.221104,0.0804198 0.194026,0.450046 0.268948,0.968092 0.268948,1.4614l0 4.23303 -1.65176 0 0 -3.90423c0,-0.913223 -0.344685,-1.36989 -1.03395,-1.36989 -0.687233,0 -1.09554,0.547364 -1.26717,1.21923 -0.0630125,0.246553 -0.0945696,0.511429 -0.0945696,0.794426l0 3.26046 -1.65176 0 0 -3.90423c0,-0.913223 -0.361482,-1.36989 -1.08434,-1.36989 -0.669826,0 -1.05554,0.569657 -1.21047,1.21923 -0.0588388,0.246553 -0.08836,0.511429 -0.08836,0.794426l0 3.26046 -1.65176 0 0 -6.71251z"/>
   <path id="_258603200" class="fil1" d="M60.1645 2.81815l-0.0123175 -0.0114013c-0.0832701,0.0469285 -0.317913,0.257751 -0.388255,0.331248 -0.209499,0.218864 -0.887977,0.825067 -1.15764,1.07467l-0.0879528 -0.0946714c0.060773,-0.0775695 0.116863,-0.128163 0.178247,-0.192804 0.506034,-0.532196 0.770503,-0.797785 1.2575,-1.35075 -0.143839,0.0644377 -1.36907,1.16314 -1.60952,1.36704l-0.103019 -0.108414 1.48919 -1.47708c-0.156666,0.0707491 -1.08893,0.844815 -1.26463,1.00209 -0.187918,0.168271 -0.448315,0.335829 -0.594292,0.53413 -0.233116,0.316589 -0.151372,0.490255 -0.0980307,0.86548 -0.0804198,0.0929409 -0.542172,0.496465 -0.666772,0.606101 -0.0985397,-0.0625035 -0.585436,-0.527411 -0.715329,-0.646107 0.0369524,-0.174582 0.296637,-0.432944 0.104444,-0.978068 -0.113606,-0.322086 -0.319134,-0.525172 -0.543903,-0.682347 -0.313841,-0.219577 -1.31797,-0.793102 -1.78675,-0.37838 -0.468573,0.414417 0.109737,1.45254 0.33929,1.76445 0.413806,0.562226 1.0367,0.826797 1.68933,0.452692l0.656898 0.701281c-0.0524256,0.0814378 -0.130097,0.121546 -0.200846,0.189852 -0.165319,0.15972 -0.63776,0.599891 -0.797785,0.73294l-1.79845 1.64616c-0.176924,0.150558 -0.237188,0.356392 -0.0922283,0.510411 0.168983,0.17957 0.404339,0.0793 0.516926,-0.0519166 0.317709,-0.370338 0.763174,-0.79524 1.11417,-1.18115 0.230774,-0.253781 0.491477,-0.531687 0.745156,-0.784857l0.742305 -0.805827c0.0834737,0.0341021 0.475902,0.464399 0.567825,0.570879l2.04643 2.16126c0.106785,0.0979289 0.301014,0.276685 0.511938,0.0862223 0.197385,-0.178247 0.0580244,-0.409327 -0.0737012,-0.518148 -0.0745156,-0.0615873 -0.125821,-0.122564 -0.197079,-0.185475 -0.0759407,-0.0670844 -0.126534,-0.100474 -0.20105,-0.18181l-1.19602 -1.10012c-0.176109,-0.174582 -0.615568,-0.545226 -0.802875,-0.728665l-0.386422 -0.385303c0.0644377,-0.0488627 0.510513,-0.528022 0.609867,-0.630837 0.145163,0.0267727 0.465926,0.222631 0.880648,-0.0949768 0.264469,-0.202577 1.27073,-1.44634 1.55679,-1.83296 -0.159109,0.081336 -0.617197,0.566298 -0.764192,0.714718l-0.734976 0.751671 -0.108414 -0.101492c0.134169,-0.187307 1.29293,-1.39656 1.37548,-1.55974z"/>
   <path id="_258602600" class="fil1" d="M60.1645 2.81815c0.0346111,-0.0202577 0.0192397,0.0343057 0.0318625,-0.0432638 -0.0884618,0.0156768 -0.0107905,-0.00305392 -0.04418,0.0318625l0.0123175 0.0114013z"/>
  </g>
 </g>
</svg>
