<?xml version="1.0" encoding="UTF-8" standalone="no"?><!DOCTYPE svg PUBLIC "-//W3C//DTD SVG 1.1//EN" "http://www.w3.org/Graphics/SVG/1.1/DTD/svg11.dtd"><svg width="100%" height="100%" viewBox="0 0 1401 981" version="1.1" xmlns="http://www.w3.org/2000/svg" xmlns:xlink="http://www.w3.org/1999/xlink" xml:space="preserve" style="fill-rule:evenodd;clip-rule:evenodd;stroke-linejoin:round;stroke-miterlimit:2;"><path d="M105.006,0c-58.165,0 -105.006,46.825 -105.006,105.006l0,770c0,58.166 46.825,105.006 105.006,105.006l1190,0c58.166,0 105.006,-46.824 105.006,-105.006l0,-770c0,-58.165 -46.825,-105.006 -105.006,-105.006l-1190,0Zm83.131,156.959l-0.012,-0.012c10.755,-1.196 21.448,2.637 28.992,10.388l433.125,424.938c27.1,26.587 71.265,26.599 98.437,-0l434.219,-424.938l-0.012,0c6.555,-6.738 15.552,-10.559 24.951,-10.595c9.4,-0.037 18.42,3.698 25.037,10.388c6.616,6.689 10.253,15.747 10.107,25.146c-0.134,9.4 -4.053,18.348 -10.876,24.829l-283.825,278.357l283.275,266.334l0.012,0c13.94,13.306 14.502,35.388 1.257,49.391c-13.257,14.001 -35.328,14.66 -49.39,1.465l-284.925,-268.519l-100.622,98.437c-54.247,53.1 -142.65,53.21 -196.875,0l-99.538,-97.887l-284.925,267.969l0.012,-0c-14.062,13.195 -36.131,12.536 -49.39,-1.465c-13.245,-14.002 -12.683,-36.085 1.257,-49.391l282.741,-266.334l-283.275,-278.357c-9.876,-9.375 -13.404,-23.62 -9.07,-36.525c4.346,-12.902 15.772,-22.119 29.297,-23.632l0.016,0.013Z" style="fill-rule:nonzero;"/></svg>