<?xml version="1.0" encoding="UTF-8" standalone="no"?><!DOCTYPE svg PUBLIC "-//W3C//DTD SVG 1.1//EN" "http://www.w3.org/Graphics/SVG/1.1/DTD/svg11.dtd"><svg width="100%" height="100%" viewBox="0 0 1476 1416" version="1.1" xmlns="http://www.w3.org/2000/svg" xmlns:xlink="http://www.w3.org/1999/xlink" xml:space="preserve" style="fill-rule:evenodd;clip-rule:evenodd;stroke-linejoin:round;stroke-miterlimit:2;"><path d="M851.293,69.164l130.432,264.134l-0.013,-0c18.299,37.244 53.822,63.037 94.885,68.909l290.394,42.382c31.262,4.467 59.703,20.507 79.7,44.946c20.007,24.439 30.102,55.482 28.308,87.013c-1.795,31.531 -15.357,61.231 -38.013,83.241l-209.715,205.896c-29.835,28.882 -43.444,70.654 -36.379,111.56l49.769,290.394c5.384,31.127 -1.111,63.134 -18.2,89.696c-17.09,26.563 -43.532,45.741 -74.085,53.747c-30.554,7.996 -63,4.224 -90.919,-10.559l-260.584,-136.718c-36.791,-19.397 -80.787,-19.397 -117.578,-0l-260.584,136.718c-27.918,14.783 -60.363,18.555 -90.919,10.559c-30.554,-8.007 -56.994,-27.185 -74.085,-53.747c-17.09,-26.561 -23.584,-58.568 -18.2,-89.696l49.769,-290.394c7.067,-40.906 -6.544,-82.678 -36.379,-111.56l-210.815,-205.896c-22.681,-22.107 -36.206,-51.929 -37.903,-83.557c-1.685,-31.615 8.593,-62.718 28.784,-87.109c20.19,-24.39 48.828,-40.297 80.212,-44.531l291.478,-42.382c41.078,-5.871 76.6,-31.665 94.885,-68.909l130.431,-264.134c14.148,-27.881 38.134,-49.538 67.322,-60.753c29.175,-11.219 61.487,-11.219 90.675,-0c29.187,11.218 53.175,32.875 67.322,60.753l0.005,-0.003Z" style="fill-rule:nonzero;"/></svg>