<?xml version="1.0" encoding="UTF-8" standalone="no"?>
<!DOCTYPE svg PUBLIC "-//W3C//DTD SVG 1.1//EN" "http://www.w3.org/Graphics/SVG/1.1/DTD/svg11.dtd">
<svg width="100%" height="100%" viewBox="0 0 357 357" version="1.1" xmlns="http://www.w3.org/2000/svg" xmlns:xlink="http://www.w3.org/1999/xlink" xml:space="preserve" xmlns:serif="http://www.serif.com/" style="fill-rule:evenodd;clip-rule:evenodd;">
    <rect x="1.043" y="1.043" width="354.916" height="354.916" style="fill:white;stroke:white;stroke-width:2.09px;"/>
    <g transform="matrix(0.789212,0,0,0.789212,37.6255,37.6248)">
        <g id="Layer_x0020_1">
            <g id="_258601784">
                <path id="_258602528" d="M58.21,137.114L83.129,137.114L83.129,150.768L84.75,150.768C90.194,141.793 99.387,135.689 109.366,134.137C119.166,150.43 138.392,158.403 156.592,152.547L157.981,152.239L170.75,152.239C175.002,152.239 179.103,151.566 182.965,150.316C184.697,149.961 186.389,149.491 188.033,148.917L188.033,178.924C187.545,165.984 182.022,159.515 171.457,159.515C160.415,159.515 153.857,168.039 151.097,178.502C150.085,182.341 149.578,186.467 149.578,190.876L149.578,241.652L123.038,241.652L123.038,180.849C123.038,166.627 117.231,159.515 105.615,159.515C94.854,159.515 88.658,168.387 86.167,178.502C85.222,182.341 84.749,186.467 84.749,190.876L84.749,241.652L58.21,241.652L58.21,137.114L58.21,137.114ZM190.436,82.737L217.947,82.737L217.947,130.28L216.265,145.759L217.947,145.759C220.465,141.189 224.384,137.283 229.705,134.039C235.025,130.796 241.604,129.175 249.444,129.175C256.024,129.175 262.289,130.612 268.238,133.487C274.188,136.361 279.438,140.342 283.988,145.427C288.538,150.513 292.143,156.594 294.802,163.672C297.462,170.748 298.791,178.486 298.791,186.89C298.791,195.293 297.462,203.032 294.802,210.109C292.143,217.185 288.538,223.266 283.988,228.351C279.438,233.438 274.188,237.419 268.238,240.293C262.289,243.167 256.024,244.605 249.444,244.605C241.604,244.605 235.025,242.984 229.705,239.74C224.384,236.496 220.465,232.59 217.947,228.019L216.265,228.019L216.265,241.067L214.61,241.067L214.61,241.651L188.07,241.651L188.07,241.067L190.436,241.067L190.436,82.737L190.436,82.737ZM243.775,217.849C247.414,217.849 250.878,217.111 254.169,215.637C257.458,214.163 260.363,212.098 262.884,209.446C265.404,206.791 267.433,203.548 268.973,199.714C270.512,195.883 271.282,191.608 271.282,186.89C271.282,182.172 270.512,177.896 268.973,174.063C267.433,170.231 265.404,166.988 262.884,164.335C260.363,161.681 257.458,159.618 254.169,158.143C250.878,156.669 247.414,155.931 243.775,155.931C240.135,155.931 236.67,156.632 233.381,158.033C230.089,159.433 227.185,161.46 224.666,164.114C222.145,166.768 220.115,170.01 218.574,173.843C217.036,177.675 216.265,182.025 216.265,186.89C216.265,191.755 217.036,196.104 218.574,199.936C220.115,203.769 222.145,207.013 224.666,209.666C227.185,212.319 230.089,214.347 233.381,215.746C236.67,217.148 240.135,217.849 243.775,217.849L243.775,217.849Z" style="fill:rgb(237,50,55);fill-rule:nonzero;"/>
                <path id="_258602720" d="M61.278,282.507C66.338,282.507 70.44,286.826 70.44,292.154C70.44,297.482 66.338,301.802 61.278,301.802C56.22,301.802 52.117,297.482 52.117,292.154C52.117,286.826 56.22,282.507 61.278,282.507ZM295.723,282.507C300.783,282.507 304.884,286.826 304.884,292.154C304.884,297.482 300.783,301.802 295.723,301.802C290.663,301.802 286.561,297.482 286.561,292.154C286.561,286.826 290.663,282.507 295.723,282.507ZM248.833,282.507C253.894,282.507 257.995,286.826 257.995,292.154C257.995,297.482 253.894,301.802 248.833,301.802C243.774,301.802 239.672,297.482 239.672,292.154C239.672,286.826 243.774,282.507 248.833,282.507ZM201.944,282.507C207.004,282.507 211.106,286.826 211.106,292.154C211.106,297.482 207.004,301.802 201.944,301.802C196.885,301.802 192.783,297.482 192.783,292.154C192.783,286.826 196.885,282.507 201.944,282.507ZM155.055,282.507C160.114,282.507 164.217,286.826 164.217,292.154C164.217,297.482 160.114,301.802 155.055,301.802C149.996,301.802 145.894,297.482 145.894,292.154C145.894,286.826 149.996,282.507 155.055,282.507ZM108.166,282.507C113.226,282.507 117.328,286.826 117.328,292.154C117.328,297.482 113.226,301.802 108.166,301.802C103.106,301.802 99.005,297.482 99.005,292.154C99.005,286.826 103.106,282.507 108.166,282.507Z" style="fill:rgb(237,50,55);"/>
                <path id="_258602864" d="M67.615,28.345L293.266,28.345C307.714,28.345 320.848,34.567 330.366,44.589C339.883,54.613 345.792,68.443 345.792,83.658L345.792,290.225C345.792,300.798 341.687,310.408 335.074,317.371C328.462,324.333 319.336,328.657 309.296,328.657L39.642,328.657C31.821,328.657 24.71,325.289 19.559,319.864C14.407,314.44 11.209,306.953 11.209,298.714L11.209,87.742C11.209,71.405 17.555,56.554 27.776,45.791C37.996,35.027 52.099,28.345 67.615,28.345L67.615,28.345ZM293.266,37.026L67.615,37.026C54.374,37.026 42.334,42.733 33.603,51.927C24.873,61.121 19.453,73.799 19.453,87.742L19.453,298.714C19.453,304.557 21.727,309.872 25.387,313.728C29.048,317.582 34.095,319.975 39.642,319.975L309.297,319.975C317.063,319.975 324.126,316.627 329.247,311.233C334.368,305.84 337.549,298.402 337.549,290.225L337.549,83.658C337.549,70.838 332.565,59.18 324.539,50.727C316.51,42.274 305.44,37.026 293.267,37.026L293.266,37.026Z" style="fill:rgb(237,50,55);fill-rule:nonzero;"/>
            </g>
        </g>
    </g>
</svg>
