<?xml version="1.0" encoding="UTF-8"?>
<!DOCTYPE svg PUBLIC "-//W3C//DTD SVG 1.1//EN" "http://www.w3.org/Graphics/SVG/1.1/DTD/svg11.dtd">
<!-- Creator: CorelDRAW -->
<svg xmlns="http://www.w3.org/2000/svg" xml:space="preserve" width="357px" height="357px" style="shape-rendering:geometricPrecision; text-rendering:geometricPrecision; image-rendering:optimizeQuality; fill-rule:evenodd; clip-rule:evenodd"
viewBox="0 0 15.4828 15.4828"
 xmlns:xlink="http://www.w3.org/1999/xlink">
 <defs>
  <style type="text/css">
   <![CDATA[
    .str0 {stroke:white;stroke-width:0.0904524}
    .fil2 {fill:none}
    .fil1 {fill:#ED3237}
    .fil0 {fill:#ED3237;fill-rule:nonzero}
   ]]>
  </style>
 </defs>
 <g id="Layer_x0020_1">
  <metadata id="CorelCorpID_0Corel-Layer"/>
  <g id="_258601784">
   <path id="_258602528" class="fil0" d="M2.52451 5.94653l1.08071 0 0 0.592145 0.0703006 0c0.23613,-0.389243 0.634808,-0.653934 1.06758,-0.721261 0.425034,0.706595 1.25885,1.05241 2.04815,0.798432l0.0602503 -0.0133833 0.55379 0c0.184392,0 0.362271,-0.0291765 0.529741,-0.0833762 0.0751206,-0.0153831 0.148498,-0.0357913 0.219824,-0.0606605l0 1.30136c-0.0211774,-0.561174 -0.260692,-0.841761 -0.718902,-0.841761 -0.478875,0 -0.763308,0.369706 -0.882988,0.823455 -0.043893,0.166496 -0.0658908,0.345452 -0.0658908,0.536664l0 2.20209 -1.15101 0 0 -2.63696c0,-0.61681 -0.251872,-0.92524 -0.755616,-0.92524 -0.466722,0 -0.735413,0.384782 -0.843453,0.823455 -0.0409702,0.166496 -0.061481,0.345452 -0.061481,0.536664l0 2.20209 -1.15101 0 0 -4.5337zm5.73455 -2.35828l1.19311 0 0 2.06189 -0.0729157 0.671317 0.0729157 0c0.10922,-0.198185 0.279203,-0.367604 0.509949,-0.508308 0.230746,-0.140652 0.516051,-0.210953 0.856068,-0.210953 0.285356,0 0.557072,0.0623527 0.815097,0.187007 0.258025,0.124654 0.485695,0.297303 0.683059,0.517845 0.197313,0.220593 0.353657,0.48431 0.468978,0.791254 0.115373,0.306892 0.173008,0.642499 0.173008,1.00698 0,0.364425 -0.0576352,0.700032 -0.173008,1.00698 -0.115322,0.306892 -0.271665,0.570609 -0.468978,0.791151 -0.197365,0.220593 -0.425034,0.393242 -0.683059,0.517896 -0.258025,0.124654 -0.529741,0.187007 -0.815097,0.187007 -0.340017,0 -0.625322,-0.0703006 -0.856068,-0.211004 -0.230746,-0.140652 -0.400729,-0.310071 -0.509949,-0.508308l-0.0729157 0 0 0.565892 -0.0717876 0 0 0.0253308 -1.15101 0 0 -0.0253308 0.102605 0 0 -6.86664zm2.31325 5.85967c0.15783,0 0.308071,-0.0319968 0.450775,-0.095939 0.142652,-0.063891 0.26864,-0.153472 0.377962,-0.268486 0.109322,-0.115117 0.197313,-0.255769 0.264076,-0.42206 0.0667625,-0.166137 0.100144,-0.351554 0.100144,-0.556149 0,-0.204646 -0.0333812,-0.390063 -0.100144,-0.556303 -0.0667625,-0.166188 -0.154754,-0.306841 -0.264076,-0.421906 -0.109322,-0.115117 -0.23531,-0.204595 -0.377962,-0.268537 -0.142704,-0.0639423 -0.292945,-0.095939 -0.450775,-0.095939 -0.15783,0 -0.308123,0.0304072 -0.450775,0.0911703 -0.142755,0.0607118 -0.268691,0.1486 -0.377962,0.263717 -0.109322,0.115117 -0.197365,0.255718 -0.264178,0.421957 -0.0667112,0.166188 -0.100144,0.354836 -0.100144,0.56584 0,0.210953 0.0334325,0.399601 0.100144,0.565789 0.0668138,0.16624 0.154856,0.306892 0.264178,0.421957 0.109271,0.115065 0.235207,0.203005 0.377962,0.263717 0.142652,0.0607631 0.292945,0.0911703 0.450775,0.0911703z"/>
   <path id="_258602720" class="fil1" d="M2.65758 12.2521c0.219465,0 0.397345,0.187314 0.397345,0.418368 0,0.231105 -0.177879,0.418419 -0.397345,0.418419 -0.219362,0 -0.397293,-0.187314 -0.397293,-0.418419 0,-0.231054 0.177931,-0.418368 0.397293,-0.418368zm10.1677 0c0.219414,0 0.397293,0.187314 0.397293,0.418368 0,0.231105 -0.177879,0.418419 -0.397293,0.418419 -0.219465,0 -0.397345,-0.187314 -0.397345,-0.418419 0,-0.231054 0.177879,-0.418368 0.397345,-0.418368zm-2.03359 0c0.219465,0 0.397345,0.187314 0.397345,0.418368 0,0.231105 -0.177879,0.418419 -0.397345,0.418419 -0.219414,0 -0.397293,-0.187314 -0.397293,-0.418419 0,-0.231054 0.177879,-0.418368 0.397293,-0.418368zm-2.03354 0c0.219465,0 0.397345,0.187314 0.397345,0.418368 0,0.231105 -0.177879,0.418419 -0.397345,0.418419 -0.219414,0 -0.397293,-0.187314 -0.397293,-0.418419 0,-0.231054 0.177879,-0.418368 0.397293,-0.418368zm-2.03354 0c0.219414,0 0.397345,0.187314 0.397345,0.418368 0,0.231105 -0.177931,0.418419 -0.397345,0.418419 -0.219414,0 -0.397293,-0.187314 -0.397293,-0.418419 0,-0.231054 0.177879,-0.418368 0.397293,-0.418368zm-2.03354 0c0.219465,0 0.397345,0.187314 0.397345,0.418368 0,0.231105 -0.177879,0.418419 -0.397345,0.418419 -0.219465,0 -0.397293,-0.187314 -0.397293,-0.418419 0,-0.231054 0.177828,-0.418368 0.397293,-0.418368z"/>
   <path id="_258602864" class="fil0" d="M2.93242 1.22931l9.7863 0c0.626603,0 1.19619,0.269819 1.60897,0.704493 0.412779,0.434725 0.669009,1.03451 0.669009,1.69439l0 8.95864c0,0.458518 -0.178033,0.875296 -0.464825,1.17727 -0.28674,0.30197 -0.682547,0.489489 -1.11794,0.489489l-11.6947 0c-0.339197,0 -0.647576,-0.146088 -0.870989,-0.381346 -0.223413,-0.235258 -0.362117,-0.559944 -0.362117,-0.917241l0 -9.14969c0,-0.708544 0.275203,-1.35263 0.718492,-1.81941 0.443237,-0.466825 1.05487,-0.75659 1.72777,-0.75659zm9.7863 0.376475l-9.7863 0c-0.57425,0 -1.09645,0.247514 -1.47508,0.646243 -0.378628,0.398729 -0.613682,0.948571 -0.613682,1.55328l0 9.14969c0,0.25341 0.0986054,0.4839 0.257359,0.651114 0.158753,0.167163 0.377654,0.270947 0.618245,0.270947l11.6947 0c0.336787,0 0.643115,-0.145216 0.865195,-0.379141 0.222131,-0.233874 0.360066,-0.556457 0.360066,-0.911088l0 -8.95864c0,-0.555995 -0.216132,-1.06159 -0.564251,-1.42821 -0.34817,-0.366578 -0.828275,-0.594196 -1.35622,-0.594196z"/>
  </g>
  <rect class="fil2 str0" x="0.0452268" y="0.045227" width="15.3924" height="15.3924"/>
 </g>
</svg>
