<?xml version="1.0" encoding="UTF-8" standalone="no"?>
<svg
   xmlns:dc="http://purl.org/dc/elements/1.1/"
   xmlns:cc="http://creativecommons.org/ns#"
   xmlns:rdf="http://www.w3.org/1999/02/22-rdf-syntax-ns#"
   xmlns:svg="http://www.w3.org/2000/svg"
   xmlns="http://www.w3.org/2000/svg"
   viewBox="0 0 1056 816"
   height="816"
   width="1056"
   xml:space="preserve"
   id="svg2"
   version="1.1"><metadata
     id="metadata8"><rdf:RDF><cc:Work
         rdf:about=""><dc:format>image/svg+xml</dc:format><dc:type
           rdf:resource="http://purl.org/dc/dcmitype/StillImage" /></cc:Work></rdf:RDF></metadata><defs
     id="defs6" /><g
     transform="matrix(1.3333333,0,0,-1.3333333,0,816)"
     id="g10"><g
       transform="scale(0.99,1)"
       id="g12" /><path
       id="path14"
       style="fill:#ffffff;fill-opacity:1;fill-rule:nonzero;stroke:none"
       d="m -439.1206,323.3857 c 5.3169,0 9.1284,-3.799 9.1284,-9.0269 0,-5.2279 -3.8112,-9.0266 -9.1284,-9.0266 -5.3175,0 -9.129,3.7984 -9.129,9.0266 0,5.2279 3.8115,9.0269 9.129,9.0269 z m 0,-13.8688 c 1.8819,0 3.4597,1.0911 4.1604,2.8015 0.4946,1.2062 0.4946,2.8746 0,4.0811 -1.5304,3.734 -6.7887,3.7391 -8.3211,0 -0.4947,-1.2065 -0.4947,-2.8749 0,-4.0811 0.7041,-1.7186 2.2702,-2.8015 4.1607,-2.8015" /><g
       transform="scale(0.99,1)"
       id="g16" /><path
       id="path18"
       style="fill:#ffffff;fill-opacity:1;fill-rule:nonzero;stroke:none"
       d="m -468.3328,330.6484 h 4.5992 v -7.4356 l -0.2806,-2.4213 h 0.2806 c 0.4213,0.7149 1.0766,1.326 1.9664,1.8331 0.8892,0.5071 1.9897,0.7611 3.3004,0.7611 2.2201,0 4.2633,-0.9609 5.7756,-2.5424 1.6787,-1.7555 2.4755,-4.0949 2.4755,-6.4845 0,-2.3888 -0.7968,-4.7293 -2.4755,-6.4845 -1.5123,-1.5812 -3.5555,-2.5421 -5.7756,-2.5421 -1.3107,0 -2.4112,0.2537 -3.3004,0.7608 -0.8898,0.5071 -1.5451,1.118 -1.9664,1.8331 h -0.2806 v -2.0403 h -4.3186 z m 8.9178,-21.1315 c 1.8995,0 3.4824,1.1328 4.2137,2.8358 0.5176,1.2053 0.5176,2.8069 0,4.0119 -0.7313,1.7033 -2.3139,2.8363 -4.2137,2.8363 -1.9196,0 -3.4707,-1.0723 -4.2131,-2.8014 -0.2577,-0.5998 -0.3861,-1.2799 -0.3861,-2.0407 0,-0.7608 0.1284,-1.4408 0.3861,-2.0404 0.7424,-1.7291 2.2935,-2.8015 4.2131,-2.8015" /><g
       transform="scale(0.99,1)"
       id="g20" /><path
       id="path22"
       style="fill:#ffffff;fill-opacity:1;fill-rule:nonzero;stroke:none"
       d="m -489.6629,330.6484 h 4.5998 l -0.281,-10.0298 h 0.281 c 0.4912,0.807 1.1993,1.47 2.124,1.9887 0.9246,0.5188 1.9601,0.7784 3.107,0.7784 2.2238,0 3.8684,-0.6457 4.9331,-1.9372 1.065,-1.2911 1.5979,-3.0546 1.5979,-5.2911 v -10.2716 h -4.5998 v 9.718 c 0,2.0693 -0.9342,3.5971 -3.1949,3.5971 -1.9445,0 -3.2003,-1.3436 -3.7043,-3.0954 -0.1755,-0.6111 -0.263,-1.2625 -0.263,-1.9542 v -8.2655 h -4.5998 z" /><g
       transform="scale(0.99,1)"
       id="g24" /><path
       id="path26"
       style="fill:#ffffff;fill-opacity:1;fill-rule:nonzero;stroke:none"
       d="m -492.4712,310.2086 c -0.7498,-1.4292 -1.7969,-2.5994 -3.1428,-3.5101 -1.3462,-0.9111 -3.0254,-1.3663 -5.0383,-1.3663 -3.7831,0 -6.9925,1.9289 -8.4444,5.4124 -0.4561,1.0953 -0.6843,2.3001 -0.6843,3.6142 0,5.2279 3.8112,9.0269 9.1287,9.0269 1.9894,0 3.6632,-0.4498 5.0205,-1.349 1.358,-0.8991 2.3524,-2.0636 2.9846,-3.4931 l -4.2135,-1.7294 c -0.8141,1.6038 -2.0324,2.3867 -3.8619,2.3867 -1.8748,0 -3.4404,-1.1264 -4.108,-2.8363 -0.4705,-1.2059 -0.4705,-2.806 0,-4.0119 0.6679,-1.7093 2.2332,-2.8358 4.108,-2.8358 1.8703,0 3.2207,0.8326 4.0377,2.4903 z" /><g
       transform="scale(0.99,1)"
       id="g28" /><path
       id="path30"
       style="fill:#ffffff;fill-opacity:1;fill-rule:nonzero;stroke:none"
       d="m -524.6328,320.6186 h 0.2809 c 1.1636,1.8436 3.1283,2.7671 5.3019,2.7671 4.5116,0 6.4602,-3.0937 6.4602,-7.2283 v -10.2716 h -4.5998 v 9.718 c 0,2.1631 -0.8807,3.5971 -3.2301,3.5971 -1.2075,0 -2.1807,-0.521 -2.8964,-1.47 -0.7529,-0.9967 -1.0358,-2.3219 -1.0358,-3.5447 v -8.3004 h -4.5998 v 16.3074 c 0.3589,0.1896 0.703,0.4034 1.0298,0.6389 h 3.2891 z" /><g
       transform="matrix(0,-0.92,1,0,0,0)"
       id="g32" /><path
       id="path34"
       style="fill:#ffffff;fill-opacity:1;fill-rule:nonzero;stroke:none"
       d="m -537.2028,308.3839 h -0.2806 c -1.1633,-2.0333 -3.1292,-3.0517 -5.3019,-3.0517 -2.1767,0 -3.7979,0.7245 -4.8626,2.1744 -1.065,1.4494 -1.5976,3.3823 -1.5976,5.7983 v 7.8202 h 0.3424 c 0.6316,-0.2285 1.2952,-0.381 1.9823,-0.4462 0.1398,-0.0374 0.2806,-0.0714 0.4229,-0.1015 0.593,-0.1981 1.2127,-0.3288 1.8522,-0.3852 v -6.277 c 0,-2.3859 0.8804,-3.9674 3.2298,-3.9674 1.2078,0 2.1804,0.5749 2.8967,1.6211 0.7529,1.0996 1.0358,2.5606 1.0358,3.9099 v 4.312 c 1.1778,0.1987 2.1696,0.6421 3.2085,1.2473 0.4899,0.2477 0.9553,0.5428 1.391,0.8807 v -15.9761 h -4.3189 z" /><g
       transform="matrix(0,-0.92,1,0,0,0)"
       id="g36" /><path
       id="path38"
       style="fill:#ffffff;fill-opacity:1;fill-rule:nonzero;stroke:none"
       d="m -580.0025,324.6341 h 4.3188 v -2.4415 h 0.281 c 0.5383,0.9156 1.2699,1.6532 2.1943,2.2125 1.2197,0.7381 2.6115,0.9635 3.9869,0.7812 l 0.1029,-0.053 c 0.7234,-0.4204 1.5072,-0.7336 2.334,-0.9193 0.8623,-0.6539 1.4775,-1.455 1.8448,-2.4026 0.4453,0.7784 1.0432,1.4658 1.7929,2.061 0.5451,-0.0847 1.0503,-0.0961 1.5965,-0.0961 0.3501,-0.1261 0.7095,-0.2296 1.0777,-0.3072 l 0.1429,-0.0462 c 0.9323,-0.3833 1.9403,-0.5984 2.9934,-0.61 0.3512,-0.127 0.7121,-0.2305 1.0814,-0.3082 0.4521,-0.1508 0.9196,-0.2622 1.3998,-0.3316 0.1955,-0.0573 0.3934,-0.1075 0.5941,-0.15 0.2081,-0.0672 0.4076,-0.1531 0.6151,-0.2242 0.5406,-1.2529 0.7489,-2.6952 0.7489,-4.0691 v -11.7871 h -4.5992 v 10.8715 c 0,2.5429 -0.9598,3.8148 -2.8791,3.8148 -1.9137,0 -3.0504,-1.5244 -3.5289,-3.3953 -0.1752,-0.6866 -0.263,-1.4238 -0.263,-2.2122 v -9.0788 h -4.5995 v 10.8715 c 0,2.5429 -1.0066,3.8148 -3.0195,3.8148 -1.8652,0 -2.9392,-1.5868 -3.3707,-3.3953 -0.1638,-0.6866 -0.2457,-1.4238 -0.2457,-2.2122 v -9.0788 h -4.5998 z" /><g
       transform="scale(0.99,1)"
       id="g40" /><path
       id="path42"
       style="fill:#ffffff;fill-opacity:1;fill-rule:evenodd;stroke:none"
       d="m -412.4682,322.8007 -0.0345,0.032 c -0.2313,-0.1307 -0.885,-0.7175 -1.0809,-0.9224 -0.5831,-0.6097 -2.4727,-2.2978 -3.2235,-2.9925 l -0.245,0.2636 c 0.1693,0.2163 0.3252,0.3569 0.4964,0.5372 1.4091,1.4816 2.1458,2.2212 3.5013,3.7607 -0.4002,-0.1792 -3.812,-3.2389 -4.4815,-3.8067 l -0.2869,0.3019 4.1468,4.1131 c -0.4363,-0.197 -3.0325,-2.3522 -3.5218,-2.7902 -0.523,-0.4685 -1.2481,-0.9351 -1.6543,-1.487 -0.6494,-0.8821 -0.4218,-1.3655 -0.2732,-2.4103 -0.224,-0.2588 -1.5098,-1.3825 -1.8567,-1.6878 -0.2741,0.1741 -1.6302,1.469 -1.9919,1.7992 0.1026,0.4861 0.826,1.2056 0.2905,2.7235 -0.316,0.8972 -0.8883,1.4627 -1.5142,1.9001 -0.874,0.6114 -3.6701,2.2085 -4.9757,1.0536 -1.3045,-1.154 0.3059,-4.0447 0.9454,-4.9136 1.1522,-1.5652 2.8865,-2.3017 4.7041,-1.26 l 1.8289,-1.9527 c -0.1457,-0.2271 -0.3623,-0.3388 -0.5593,-0.5287 -0.4604,-0.445 -1.7762,-1.6707 -2.2215,-2.0412 l -5.008,-4.5839 c -0.4924,-0.4193 -0.6607,-0.9924 -0.2571,-1.4213 0.4708,-0.5001 1.1262,-0.2206 1.4394,0.1443 0.885,1.0312 2.1257,2.2147 3.1028,3.2893 0.6427,0.7067 1.3686,1.4808 2.0747,2.1855 l 2.0673,2.2442 c 0.2325,-0.095 1.3249,-1.2935 1.5812,-1.59 l 5.6985,-6.0182 c 0.2973,-0.2724 0.8379,-0.7705 1.4255,-0.2401 0.5497,0.4963 0.1616,1.1398 -0.2052,1.4428 -0.2072,0.1715 -0.3504,0.3413 -0.5491,0.5165 -0.2112,0.1868 -0.352,0.2798 -0.5595,0.5063 l -3.3307,3.0634 c -0.4901,0.4858 -1.7139,1.5182 -2.2357,2.0287 l -1.0761,1.0732 c 0.18,0.1361 1.4219,1.4701 1.6983,1.7569 0.4045,-0.0748 1.2977,-0.6205 2.4525,0.2642 0.7365,0.5638 3.5388,4.0275 4.335,5.1038 -0.443,-0.2262 -1.7186,-1.5766 -2.1279,-1.9899 l -2.0466,-2.0931 -0.3019,0.2826 c 0.3733,0.5216 3.6003,3.8886 3.8301,4.343" /><g
       transform="scale(0.99,1)"
       id="g44" /><path
       id="path46"
       style="fill:#ffffff;fill-opacity:1;fill-rule:evenodd;stroke:none"
       d="m -412.4682,322.8007 c 0.0964,0.0567 0.0536,-0.0953 0.0885,0.1207 -0.2461,-0.0434 -0.0301,0.008 -0.123,-0.0887 z" /><path
       id="path48"
       style="fill:#ed3338;fill-opacity:1;fill-rule:nonzero;stroke:none"
       d="m -655.0532,329.9627 h 5.9746 v -3.274 h 0.3886 c 1.3054,2.1523 3.5093,3.615 5.9021,3.9875 2.3496,-3.9065 6.9585,-5.8182 11.3218,-4.4142 l 0.3331,0.0737 h 3.062 c 1.019,0 2.0024,0.1616 2.9279,0.4612 0.4155,0.0854 0.8217,0.1979 1.2158,0.3357 v -7.1946 c -0.1171,3.1025 -1.4417,4.6536 -3.9745,4.6536 -2.6473,0 -4.2199,-2.0438 -4.881,-4.5519 -0.2432,-0.9207 -0.3648,-1.9105 -0.3648,-2.9667 v -12.1737 h -6.3629 v 14.5775 c 0,3.4095 -1.3915,5.1148 -4.1769,5.1148 -2.5801,0 -4.0657,-2.1271 -4.6627,-4.5519 -0.2265,-0.9207 -0.3399,-1.9105 -0.3399,-2.9667 v -12.1737 h -6.3632 z m 31.7016,13.0357 h 6.5956 v -11.3976 l -0.4028,-3.7117 h 0.4028 c 0.6038,1.0959 1.5438,2.0325 2.8194,2.8103 1.2758,0.7773 2.8528,1.1662 4.7321,1.1662 1.5772,0 3.0793,-0.345 4.506,-1.0341 1.4258,-0.6891 2.685,-1.6432 3.776,-2.8627 1.0908,-1.2189 1.9551,-2.6771 2.5929,-4.3739 0.6375,-1.6968 0.9564,-3.5515 0.9564,-5.5664 0,-2.0145 -0.3189,-3.8698 -0.9564,-5.5672 -0.6378,-1.696 -1.5021,-3.1541 -2.5929,-4.373 -1.091,-1.22 -2.3502,-2.1742 -3.776,-2.8636 -1.4267,-0.6888 -2.9288,-1.0335 -4.506,-1.0335 -1.8793,0 -3.4563,0.3886 -4.7321,1.1665 -1.2756,0.7781 -2.2156,1.7144 -2.8194,2.8102 h -0.4028 v -3.1283 h -0.3971 v -0.1403 h -6.3629 v 0.1403 h 0.5672 z m 12.7879,-32.3924 c 0.8725,0 1.7028,0.1772 2.4917,0.5304 0.7889,0.3529 1.485,0.8481 2.0897,1.4839 0.604,0.637 1.0907,1.4142 1.4604,2.3335 0.3685,0.9181 0.553,1.9431 0.553,3.0747 0,1.1311 -0.1845,2.1561 -0.553,3.0751 -0.3697,0.9181 -0.8564,1.6965 -1.4604,2.3323 -0.6047,0.6367 -1.3008,1.131 -2.0897,1.4848 -0.7889,0.3532 -1.6192,0.5301 -2.4917,0.5301 -0.8728,0 -1.7033,-0.1676 -2.4919,-0.504 -0.7892,-0.3351 -1.4851,-0.8212 -2.0894,-1.4579 -0.6044,-0.6364 -1.0911,-1.4136 -1.4607,-2.332 -0.3683,-0.9193 -0.5531,-1.9619 -0.5531,-3.1284 0,-1.1667 0.1848,-2.209 0.5531,-3.1277 0.3696,-0.9196 0.8563,-1.6968 1.4607,-2.3329 0.6043,-0.6358 1.3002,-1.1223 2.0894,-1.4582 0.7886,-0.3359 1.6191,-0.5037 2.4919,-0.5037" /><path
       id="path50"
       style="fill:#ed3338;fill-opacity:1;fill-rule:evenodd;stroke:none"
       d="m -654.3173,295.1039 c 1.2132,0 2.1966,-1.0355 2.1966,-2.3128 0,-1.2776 -0.9834,-2.3131 -2.1966,-2.3131 -1.2127,0 -2.1966,1.0355 -2.1966,2.3131 0,1.2773 0.9839,2.3128 2.1966,2.3128 z m 56.2085,0 c 1.2129,0 2.1968,-1.0355 2.1968,-2.3128 0,-1.2776 -0.9839,-2.3131 -2.1968,-2.3131 -1.2132,0 -2.1969,1.0355 -2.1969,2.3131 0,1.2773 0.9837,2.3128 2.1969,2.3128 z m -11.2419,0 c 1.2135,0 2.1962,-1.0355 2.1962,-2.3128 0,-1.2776 -0.9827,-2.3131 -2.1962,-2.3131 -1.213,0 -2.1963,1.0355 -2.1963,2.3131 0,1.2773 0.9833,2.3128 2.1963,2.3128 z m -11.2414,0 c 1.2127,0 2.1963,-1.0355 2.1963,-2.3128 0,-1.2776 -0.9836,-2.3131 -2.1963,-2.3131 -1.2129,0 -2.1966,1.0355 -2.1966,2.3131 0,1.2773 0.9837,2.3128 2.1966,2.3128 z m -11.2422,0 c 1.2132,0 2.1966,-1.0355 2.1966,-2.3128 0,-1.2776 -0.9834,-2.3131 -2.1966,-2.3131 -1.2127,0 -2.1957,1.0355 -2.1957,2.3131 0,1.2773 0.983,2.3128 2.1957,2.3128 z m -11.2414,0 c 1.2136,0 2.1966,-1.0355 2.1966,-2.3128 0,-1.2776 -0.983,-2.3131 -2.1966,-2.3131 -1.2135,0 -2.1962,1.0355 -2.1962,2.3131 0,1.2773 0.9827,2.3128 2.1962,2.3128" /><path
       id="path52"
       style="fill:#ed3338;fill-opacity:1;fill-rule:nonzero;stroke:none"
       d="m -652.7985,356.0397 h 54.1001 c 3.4639,0 6.6126,-1.4919 8.8945,-3.8948 2.2822,-2.4032 3.6987,-5.7192 3.6987,-9.3668 v -49.5244 c 0,-2.5344 -0.9837,-4.8387 -2.5694,-6.5077 -1.5854,-1.6697 -3.7734,-2.7063 -6.1806,-2.7063 h -64.6489 c -1.8757,0 -3.5802,0.8079 -4.815,2.1084 -1.2356,1.3003 -2.0021,3.0952 -2.0021,5.0701 v 50.5808 c 0,3.9167 1.5211,7.4781 3.9717,10.0582 2.4511,2.5807 5.8317,4.1825 9.551,4.1825 z m 54.1001,-2.0815 h -54.1001 c -3.1742,0 -6.0605,-1.3685 -8.1538,-3.5725 -2.0931,-2.2042 -3.3928,-5.2441 -3.3928,-8.5867 v -50.5808 c 0,-1.4009 0.5451,-2.6751 1.423,-3.5992 0.8776,-0.9238 2.088,-1.4978 3.418,-1.4978 h 64.6489 c 1.8621,0 3.5555,0.8028 4.7832,2.0957 1.2285,1.2934 1.9907,3.0764 1.9907,5.0368 v 49.5244 c 0,3.0736 -1.1953,5.8689 -3.1195,7.8953 -1.9247,2.0265 -4.5788,3.2848 -7.4976,3.2848" /><path
       id="path54"
       style="fill:#ed3338;fill-opacity:1;fill-rule:nonzero;stroke:none"
       d="m 113.5069,324.7319 h 11.8766 v -6.1804 h 0.7724 c 2.5951,4.0635 6.9761,6.8247 11.7332,7.5283 4.6706,-7.3755 13.8333,-10.984 22.5073,-8.3336 l 0.6622,0.1395 h 6.0863 c 2.0265,0 3.9812,0.305 5.8212,0.8705 0.8257,0.161 1.6328,0.3733 2.4165,0.6332 v -13.5813 c -0.233,5.8567 -2.8652,8.7851 -7.901,8.7851 -5.2622,0 -8.3888,-3.8585 -9.7032,-8.5932 -0.4828,-1.7379 -0.7243,-3.6065 -0.7243,-5.601 v -22.981 h -12.6493 v 27.5196 c 0,6.4366 -2.7678,9.6556 -8.3035,9.6556 -5.1293,0 -8.0825,-4.0155 -9.2699,-8.5932 -0.4504,-1.7379 -0.6755,-3.6065 -0.6755,-5.601 v -22.981 h -12.649 z m 63.0204,24.6101 h 13.1119 v -21.5172 l -0.8011,-7.0061 h 0.8011 c 1.2005,2.0681 3.0688,3.8364 5.6041,5.305 2.5364,1.4672 5.6718,2.2011 9.4079,2.2011 3.1354,0 6.1214,-0.6511 8.9572,-1.9519 2.8352,-1.3006 5.3379,-3.1023 7.507,-5.404 2.1682,-2.302 3.886,-5.0539 5.1545,-8.2576 1.2677,-3.2026 1.9009,-6.7051 1.9009,-10.5083 0,-3.8033 -0.6332,-7.3055 -1.9009,-10.5089 -1.2685,-3.2026 -2.9863,-5.9547 -5.1545,-8.2562 -2.1691,-2.3026 -4.6718,-4.1043 -7.507,-5.4054 -2.8358,-1.3008 -5.8218,-1.9511 -8.9572,-1.9511 -3.7361,0 -6.8715,0.7339 -9.4079,2.202 -2.5353,1.4683 -4.4036,3.236 -5.6041,5.305 h -0.8011 v -5.9057 h -0.7888 v -0.2647 h -12.6496 v 0.2647 h 1.1276 z m 25.4216,-61.1509 c 1.7348,0 3.3857,0.3342 4.9539,1.0012 1.5681,0.6667 2.9525,1.601 4.1539,2.802 1.201,1.2013 2.1685,2.6685 2.9021,4.4045 0.7333,1.7339 1.1007,3.6689 1.1007,5.8042 0,2.1353 -0.3674,4.0705 -1.1007,5.8056 -0.7336,1.7337 -1.7011,3.2018 -2.9021,4.4025 -1.2014,1.2019 -2.5858,2.1354 -4.1539,2.8032 -1.5682,0.6664 -3.2191,1.0006 -4.9539,1.0006 -1.735,0 -3.3865,-0.3163 -4.9538,-0.951 -1.569,-0.6333 -2.952,-1.5511 -4.1539,-2.753 -1.2013,-1.2013 -2.1688,-2.668 -2.9026,-4.4028 -0.7328,-1.7348 -1.1005,-3.7029 -1.1005,-5.9051 0,-2.2017 0.3677,-4.1698 1.1005,-5.9046 0.7338,-1.7351 1.7013,-3.2026 2.9026,-4.4039 1.2019,-1.2005 2.5849,-2.1186 4.1539,-2.7524 1.5673,-0.6338 3.2188,-0.951 4.9538,-0.951" /><path
       id="path56"
       style="fill:#ed3338;fill-opacity:1;fill-rule:evenodd;stroke:none"
       d="m 114.969,258.9262 c 2.4117,0 4.3665,-1.9548 4.3665,-4.3662 0,-2.4117 -1.9548,-4.3665 -4.3665,-4.3665 -2.4109,0 -4.3662,1.9548 -4.3662,4.3665 0,2.4114 1.9553,4.3662 4.3662,4.3662 z m 111.7397,0 c 2.4109,0 4.3665,-1.9548 4.3665,-4.3662 0,-2.4117 -1.9556,-4.3665 -4.3665,-4.3665 -2.4114,0 -4.367,1.9548 -4.367,4.3665 0,2.4114 1.9556,4.3662 4.367,4.3662 z m -22.3486,0 c 2.4123,0 4.3662,-1.9548 4.3662,-4.3662 0,-2.4117 -1.9539,-4.3665 -4.3662,-4.3665 -2.4117,0 -4.3659,1.9548 -4.3659,4.3665 0,2.4114 1.9542,4.3662 4.3659,4.3662 z m -22.3475,0 c 2.4109,0 4.3671,-1.9548 4.3671,-4.3662 0,-2.4117 -1.9562,-4.3665 -4.3671,-4.3665 -2.4109,0 -4.3662,1.9548 -4.3662,4.3665 0,2.4114 1.9553,4.3662 4.3662,4.3662 z m -22.3478,0 c 2.4112,0 4.3659,-1.9548 4.3659,-4.3662 0,-2.4117 -1.9547,-4.3665 -4.3659,-4.3665 -2.4111,0 -4.3668,1.9548 -4.3668,4.3665 0,2.4114 1.9557,4.3662 4.3668,4.3662 z m -22.3478,0 c 2.4126,0 4.3668,-1.9548 4.3668,-4.3662 0,-2.4117 -1.9542,-4.3665 -4.3668,-4.3665 -2.4122,0 -4.3662,1.9548 -4.3662,4.3665 0,2.4114 1.954,4.3662 4.3662,4.3662" /><path
       id="path58"
       style="fill:#ed3338;fill-opacity:1;fill-rule:nonzero;stroke:none"
       d="m 117.989,373.9606 h 107.5476 c 6.8865,0 13.1457,-2.8165 17.6822,-7.3528 4.5366,-4.5365 7.3523,-10.796 7.3523,-17.6819 V 255.433 c 0,-4.784 -1.9562,-9.134 -5.1078,-12.285 -3.1516,-3.1519 -7.501,-5.1086 -12.2859,-5.1086 H 104.658 c -3.7276,0 -7.1173,1.5244 -9.5724,3.9795 -2.4553,2.4548 -3.9795,5.8437 -3.9795,9.5721 v 95.4861 c 0,7.3939 3.024,14.1169 7.8956,18.9873 4.8719,4.8719 11.5931,7.8962 18.9873,7.8962 z m 107.5476,-3.9291 H 117.989 c -6.3102,0 -12.0487,-2.5835 -16.2093,-6.7442 -4.1613,-4.1609 -6.7448,-9.9 -6.7448,-16.2102 V 251.591 c 0,-2.6448 1.0834,-5.05 2.8287,-6.7944 1.7444,-1.7444 4.1502,-2.8281 6.7944,-2.8281 h 128.5194 c 3.7012,0 7.0673,1.5151 9.508,3.9563 2.4414,2.4415 3.9571,5.8076 3.9571,9.5082 v 93.4929 c 0,5.8022 -2.3757,11.0789 -6.2013,14.9046 -3.8251,3.8253 -9.1018,6.201 -14.9046,6.201" /><g
       transform="scale(0.99,1)"
       id="g60" /><path
       id="path62"
       style="fill:#ed3338;fill-opacity:1;fill-rule:nonzero;stroke:none"
       d="m 630.0283,320.0057 c 13.8028,0 23.6968,-9.8614 23.6968,-23.4326 0,-13.5714 -9.8937,-23.4326 -23.6968,-23.4326 -13.8038,0 -23.6979,9.8603 -23.6979,23.4326 0,13.5712 9.8941,23.4326 23.6979,23.4326 z m 0,-36.0023 c 4.8858,0 8.9811,2.833 10.8,7.2723 1.2844,3.1314 1.2844,7.4628 0,10.5945 -3.973,9.6939 -17.6229,9.7064 -21.6011,0 -1.2841,-3.1317 -1.2841,-7.4631 0,-10.5945 1.8281,-4.4606 5.8941,-7.2723 10.8011,-7.2723" /><g
       transform="scale(0.99,1)"
       id="g64" /><path
       id="path66"
       style="fill:#ed3338;fill-opacity:1;fill-rule:nonzero;stroke:none"
       d="m 554.1953,338.8592 h 11.9396 V 319.557 l -0.7285,-6.2853 h 0.7285 c 1.0941,1.8559 2.7952,3.4421 5.1043,4.7585 2.3088,1.3167 5.1647,1.9755 8.568,1.9755 5.7634,0 11.0676,-2.4945 14.9933,-6.5991 4.358,-4.5581 6.4256,-10.6313 6.4256,-16.8335 0,-6.2019 -2.0676,-12.2777 -6.4256,-16.8335 -3.9257,-4.1049 -9.2299,-6.5991 -14.9933,-6.5991 -3.4033,0 -6.2592,0.6582 -8.568,1.9749 -2.3091,1.3167 -4.0102,2.9027 -5.1043,4.7588 h -0.7285 v -5.2971 h -11.2111 z m 23.1509,-54.8558 c 4.9306,0 9.0394,2.9413 10.9372,7.3619 1.3444,3.1286 1.3444,7.2859 0,10.4145 -1.8978,4.4215 -6.0064,7.3618 -10.9372,7.3618 -4.9833,0 -9.0099,-2.7825 -10.9372,-7.2714 -0.6687,-1.5571 -1.0026,-3.3222 -1.0026,-5.2971 0,-1.9755 0.3339,-3.7412 1.0026,-5.2974 1.9273,-4.4884 5.9541,-7.2723 10.9372,-7.2723" /><g
       transform="scale(0.99,1)"
       id="g68" /><path
       id="path70"
       style="fill:#ed3338;fill-opacity:1;fill-rule:nonzero;stroke:none"
       d="m 498.8242,338.8592 h 11.9401 l -0.7291,-26.0362 h 0.7291 c 1.2759,2.0948 3.1144,3.8157 5.5145,5.1622 2.3998,1.3467 5.0891,2.0205 8.0657,2.0205 5.7728,0 10.0415,-1.6761 12.8061,-5.0281 2.7646,-3.352 4.1474,-7.9305 4.1474,-13.7361 v -26.6644 h -11.9401 v 25.2278 c 0,5.3711 -2.4256,9.3367 -8.2945,9.3367 -5.0471,0 -8.3075,-3.4866 -9.6157,-8.0345 -0.4558,-1.5865 -0.6834,-3.2771 -0.6834,-5.0729 v -21.4571 h -11.9401 z" /><g
       transform="scale(0.99,1)"
       id="g72" /><path
       id="path74"
       style="fill:#ed3338;fill-opacity:1;fill-rule:nonzero;stroke:none"
       d="m 491.5332,285.7995 c -1.9448,-3.7112 -4.6638,-6.7482 -8.1578,-9.1129 -3.494,-2.3643 -7.8534,-3.5461 -13.0788,-3.5461 -9.82,0 -18.1516,5.0071 -21.9206,14.0505 -1.1846,2.8429 -1.7773,5.9703 -1.7773,9.3821 0,13.5712 9.8941,23.4326 23.6979,23.4326 5.1645,0 9.5094,-1.1673 13.0334,-3.5019 3.5244,-2.3341 6.1064,-5.3564 7.7469,-9.0681 l -10.937,-4.4889 c -2.1132,4.1635 -5.2767,6.1948 -10.0261,6.1948 -4.8668,0 -8.9306,-2.9236 -10.6639,-7.3618 -1.2218,-3.1306 -1.2218,-7.2839 0,-10.4145 1.7336,-4.4374 5.7971,-7.3619 10.6639,-7.3619 4.8557,0 8.3608,2.1615 10.4817,6.4644 z" /><g
       transform="scale(0.99,1)"
       id="g76" /><path
       id="path78"
       style="fill:#ed3338;fill-opacity:1;fill-rule:nonzero;stroke:none"
       d="m 408.0447,312.823 h 0.7285 c 3.0212,4.7857 8.1221,7.1827 13.7636,7.1827 11.7122,0 16.7706,-8.0308 16.7706,-18.7642 v -26.6644 h -11.9401 v 25.2278 c 0,5.6151 -2.2864,9.3367 -8.3854,9.3367 -3.1351,0 -5.6602,-1.3515 -7.5189,-3.8154 -1.9542,-2.5872 -2.6898,-6.0273 -2.6898,-9.2018 v -21.5473 h -11.9395 v 42.3337 c 0.9314,0.4918 1.8249,1.0469 2.6725,1.6583 h 8.5385 z" /><g
       transform="matrix(0,-0.92,1,0,0,0)"
       id="g80" /><path
       id="path82"
       style="fill:#ed3338;fill-opacity:1;fill-rule:nonzero;stroke:none"
       d="m 375.4151,281.0625 h -0.7288 c -3.02,-5.2784 -8.1227,-7.922 -13.7636,-7.922 -5.6506,0 -9.8589,1.8811 -12.6236,5.6446 -2.7643,3.7625 -4.1468,8.7798 -4.1468,15.0517 v 20.2998 h 0.8879 c 1.6401,-0.5925 3.3627,-0.9873 5.146,-1.1569 0.3631,-0.0975 0.729,-0.1851 1.0987,-0.2636 1.5392,-0.5145 3.1479,-0.8543 4.8073,-1.0003 v -16.2947 c 0,-6.194 2.2858,-10.2991 8.3854,-10.2991 3.1346,0 5.6599,1.4921 7.5192,4.2089 1.9539,2.8542 2.6895,6.6472 2.6895,10.15 v 11.1934 c 3.0569,0.5154 5.6316,1.6668 8.3279,3.2378 1.2725,0.6423 2.4806,1.4091 3.6116,2.2861 v -41.4731 h -11.2107 z" /><g
       transform="matrix(0,-0.92,1,0,0,0)"
       id="g84" /><path
       id="path86"
       style="fill:#ed3338;fill-opacity:1;fill-rule:nonzero;stroke:none"
       d="m 264.3094,323.2466 h 11.2111 v -6.3375 h 0.7288 c 1.3977,2.3763 3.2967,4.2911 5.6967,5.7436 3.1669,1.9154 6.7797,2.5007 10.3496,2.0273 l 0.2682,-0.1374 c 1.8771,-1.0917 3.9124,-1.9044 6.0579,-2.3865 2.2388,-1.698 3.8358,-3.7772 4.7891,-6.2374 1.1563,2.0211 2.7074,3.8052 4.654,5.351 1.4156,-0.2197 2.7272,-0.2495 4.1445,-0.2495 0.9088,-0.3282 1.8419,-0.5958 2.7981,-0.7982 l 0.3707,-0.1196 c 2.4203,-0.995 5.0369,-1.5534 7.7707,-1.5838 0.911,-0.3293 1.8481,-0.5978 2.8065,-0.8002 1.1739,-0.3914 2.3879,-0.6806 3.6346,-0.8606 0.5066,-0.1482 1.0213,-0.2783 1.5415,-0.3892 0.5406,-0.1743 1.0587,-0.3971 1.5979,-0.5814 1.4023,-3.2533 1.9443,-6.9976 1.9443,-10.5638 v -30.5983 h -11.9401 v 28.2214 c 0,6.6016 -2.4914,9.9023 -7.4738,9.9023 -4.968,0 -7.9189,-3.956 -9.1602,-8.8129 -0.4555,-1.7825 -0.6837,-3.6967 -0.6837,-5.743 v -23.5678 h -11.9401 v 28.2214 c 0,6.6016 -2.6127,9.9023 -7.8378,9.9023 -4.8416,0 -7.63,-4.1179 -8.7503,-8.8129 -0.4252,-1.7825 -0.6383,-3.6967 -0.6383,-5.743 v -23.5678 h -11.9399 z" /><g
       transform="scale(0.99,1)"
       id="g88" /><path
       id="path90"
       style="fill:#ed3338;fill-opacity:1;fill-rule:evenodd;stroke:none"
       d="m 699.2161,318.488 -0.089,0.0825 c -0.6015,-0.339 -2.2975,-1.8632 -2.806,-2.3944 -1.5149,-1.5826 -6.4197,-5.9647 -8.3682,-7.7684 l -0.6364,0.6843 c 0.4394,0.5604 0.8448,0.9267 1.2889,1.3938 3.6579,3.8466 5.5696,5.7671 9.0899,9.7637 -1.04,-0.466 -9.8963,-8.4079 -11.6345,-9.8822 l -0.7452,0.7838 10.7654,10.6781 c -1.1327,-0.5122 -7.8721,-6.1072 -9.1423,-7.2442 -1.3584,-1.2166 -3.2403,-2.4276 -4.2951,-3.8608 -1.6855,-2.289 -1.095,-3.5439 -0.7089,-6.2569 -0.5814,-0.671 -3.9192,-3.5884 -4.8198,-4.3809 -0.7118,0.4515 -4.2318,3.8128 -5.1712,4.67 0.2673,1.2623 2.1447,3.1303 0.7549,7.0702 -0.821,2.329 -2.3066,3.7967 -3.9311,4.9329 -2.2689,1.5868 -9.5273,5.7328 -12.9161,2.7348 -3.3865,-2.9953 0.7931,-10.4995 2.4531,-12.7545 2.9911,-4.0637 7.4934,-5.9762 12.2111,-3.2714 l 4.7486,-5.0698 c -0.379,-0.5893 -0.94,-0.8787 -1.4519,-1.3725 -1.1951,-1.1549 -4.6103,-4.3367 -5.7668,-5.298 l -13.0006,-11.8998 c -1.2784,-1.0882 -1.7146,-2.5764 -0.6669,-3.6893 1.2225,-1.298 2.9228,-0.5732 3.7369,0.3747 2.2966,2.6771 5.5173,5.7487 8.0543,8.5388 1.6679,1.8341 3.5524,3.8432 5.3864,5.6727 l 5.3657,5.8258 c 0.6032,-0.2466 3.4401,-3.3574 4.1046,-4.127 l 14.7932,-15.6228 c 0.7713,-0.7081 2.1755,-2.0002 3.7,-0.6237 1.427,1.2887 0.4198,2.9594 -0.5323,3.746 -0.5386,0.4454 -0.9097,0.8859 -1.4253,1.3408 -0.5485,0.4845 -0.9142,0.726 -1.4527,1.3139 l -8.6454,7.9529 c -1.2731,1.2611 -4.4499,3.9412 -5.8043,5.2664 l -2.7932,2.7856 c 0.4663,0.353 3.6907,3.8166 4.4084,4.5601 1.0497,-0.1936 3.3684,-1.6098 6.3666,0.6866 1.9114,1.4641 9.1854,10.4553 11.253,13.2494 -1.1506,-0.5873 -4.4617,-4.0929 -5.5241,-5.1661 l -5.3124,-5.4338 -0.7838,0.7339 c 0.9691,1.3541 9.3461,10.0951 9.9425,11.2748" /><g
       transform="scale(0.99,1)"
       id="g92" /><path
       id="path94"
       style="fill:#ed3338;fill-opacity:1;fill-rule:evenodd;stroke:none"
       d="m 699.2161,318.488 c 0.2506,0.1466 0.1395,-0.248 0.2302,0.3127 -0.6392,-0.1134 -0.078,0.0224 -0.3192,-0.2302 z" /><g
       transform="scale(0.99,1)"
       id="g96" /><path
       id="path98"
       style="fill:#ed3338;fill-opacity:1;fill-rule:nonzero;stroke:none"
       d="m -435.4982,273.1085 c 5.3169,0 9.1284,-3.799 9.1284,-9.027 0,-5.2279 -3.8112,-9.0266 -9.1284,-9.0266 -5.3175,0 -9.129,3.7984 -9.129,9.0266 0,5.228 3.8115,9.027 9.129,9.027 z m 0,-13.8688 c 1.8819,0 3.4596,1.091 4.1604,2.8015 0.4946,1.2061 0.4946,2.8746 0,4.081 -1.5305,3.7341 -6.7887,3.7392 -8.3211,0 -0.4947,-1.2064 -0.4947,-2.8749 0,-4.081 0.7041,-1.7187 2.2702,-2.8015 4.1607,-2.8015" /><g
       transform="scale(0.99,1)"
       id="g100" /><path
       id="path102"
       style="fill:#ed3338;fill-opacity:1;fill-rule:nonzero;stroke:none"
       d="m -464.7104,280.3711 h 4.5992 v -7.4355 l -0.2806,-2.4214 h 0.2806 c 0.4212,0.7149 1.0766,1.3261 1.9664,1.8332 0.8892,0.5071 1.9897,0.7611 3.3004,0.7611 2.2201,0 4.2633,-0.961 5.7756,-2.5424 1.6787,-1.7555 2.4755,-4.095 2.4755,-6.4846 0,-2.3887 -0.7968,-4.7293 -2.4755,-6.4845 -1.5123,-1.5812 -3.5555,-2.5421 -5.7756,-2.5421 -1.3107,0 -2.4112,0.2537 -3.3004,0.7608 -0.8898,0.5071 -1.5452,1.118 -1.9664,1.8332 h -0.2806 v -2.0404 h -4.3186 z m 8.9178,-21.1314 c 1.8995,0 3.4824,1.1327 4.2137,2.8358 0.5176,1.2053 0.5176,2.8068 0,4.0118 -0.7313,1.7034 -2.3139,2.8364 -4.2137,2.8364 -1.9196,0 -3.4707,-1.0724 -4.2131,-2.8015 -0.2577,-0.5998 -0.3861,-1.2798 -0.3861,-2.0407 0,-0.7608 0.1284,-1.4408 0.3861,-2.0403 0.7424,-1.7292 2.2935,-2.8015 4.2131,-2.8015" /><g
       transform="scale(0.99,1)"
       id="g104" /><path
       id="path106"
       style="fill:#ed3338;fill-opacity:1;fill-rule:nonzero;stroke:none"
       d="m -486.0405,280.3711 h 4.5997 l -0.2809,-10.0298 h 0.2809 c 0.4913,0.807 1.1994,1.47 2.124,1.9888 0.9247,0.5187 1.9602,0.7784 3.1071,0.7784 2.2238,0 3.8684,-0.6458 4.9331,-1.9372 1.065,-1.2912 1.5979,-3.0546 1.5979,-5.2912 v -10.2716 h -4.5998 v 9.718 c 0,2.0693 -0.9343,3.5972 -3.1949,3.5972 -1.9446,0 -3.2003,-1.3436 -3.7043,-3.0954 -0.1755,-0.6112 -0.2631,-1.2626 -0.2631,-1.9543 v -8.2655 h -4.5997 z" /><g
       transform="scale(0.99,1)"
       id="g108" /><path
       id="path110"
       style="fill:#ed3338;fill-opacity:1;fill-rule:nonzero;stroke:none"
       d="m -488.8488,259.9313 c -0.7498,-1.4292 -1.7969,-2.5993 -3.1428,-3.5101 -1.3462,-0.9111 -3.0254,-1.3663 -5.0383,-1.3663 -3.7831,0 -6.9925,1.929 -8.4444,5.4125 -0.4561,1.0953 -0.6843,2.3 -0.6843,3.6141 0,5.228 3.8112,9.027 9.1287,9.027 1.9894,0 3.6632,-0.4499 5.0205,-1.349 1.358,-0.8992 2.3524,-2.0637 2.9845,-3.4932 l -4.2134,-1.7294 c -0.8141,1.6039 -2.0324,2.3868 -3.8619,2.3868 -1.8748,0 -3.4404,-1.1265 -4.108,-2.8364 -0.4705,-1.2058 -0.4705,-2.806 0,-4.0118 0.6679,-1.7093 2.2332,-2.8358 4.108,-2.8358 1.8703,0 3.2207,0.8325 4.0377,2.4902 z" /><g
       transform="scale(0.99,1)"
       id="g112" /><path
       id="path114"
       style="fill:#ed3338;fill-opacity:1;fill-rule:nonzero;stroke:none"
       d="m -521.0104,270.3413 h 0.2809 c 1.1636,1.8436 3.1283,2.7672 5.3019,2.7672 4.5116,0 6.4602,-3.0938 6.4602,-7.2284 v -10.2716 h -4.5998 v 9.718 c 0,2.1631 -0.8807,3.5972 -3.2301,3.5972 -1.2076,0 -2.1807,-0.521 -2.8964,-1.4701 -0.7529,-0.9966 -1.0358,-2.3218 -1.0358,-3.5447 v -8.3004 h -4.5998 v 16.3074 c 0.3589,0.1897 0.703,0.4034 1.0298,0.639 h 3.2891 z" /><g
       transform="matrix(0,-0.92,1,0,0,0)"
       id="g116" /><path
       id="path118"
       style="fill:#ed3338;fill-opacity:1;fill-rule:nonzero;stroke:none"
       d="m -533.5804,258.1067 h -0.2806 c -1.1633,-2.0333 -3.1292,-3.0518 -5.3019,-3.0518 -2.1768,0 -3.7979,0.7245 -4.8626,2.1745 -1.065,1.4493 -1.5976,3.3823 -1.5976,5.7982 v 7.8202 h 0.3424 c 0.6316,-0.2284 1.2952,-0.3809 1.9823,-0.4461 0.1398,-0.0374 0.2806,-0.0715 0.4229,-0.1015 0.593,-0.1982 1.2127,-0.3288 1.8522,-0.3852 v -6.2771 c 0,-2.3859 0.8804,-3.9673 3.2298,-3.9673 1.2078,0 2.1804,0.5748 2.8967,1.6211 0.7529,1.0995 1.0358,2.5605 1.0358,3.9098 v 4.3121 c 1.1778,0.1987 2.1696,0.642 3.2085,1.2472 0.4899,0.2478 0.9553,0.5429 1.391,0.8807 v -15.976 h -4.3189 z" /><g
       transform="matrix(0,-0.92,1,0,0,0)"
       id="g120" /><path
       id="path122"
       style="fill:#ed3338;fill-opacity:1;fill-rule:nonzero;stroke:none"
       d="m -576.3801,274.3569 h 4.3188 v -2.4415 h 0.281 c 0.5383,0.9156 1.2699,1.6531 2.1943,2.2124 1.2197,0.7382 2.6115,0.9635 3.9869,0.7812 l 0.1029,-0.053 c 0.7234,-0.4203 1.5072,-0.7336 2.334,-0.9192 0.8623,-0.654 1.4774,-1.4551 1.8448,-2.4027 0.4453,0.7784 1.0432,1.4658 1.7929,2.0611 0.5451,-0.0848 1.0503,-0.0961 1.5965,-0.0961 0.3501,-0.1262 0.7095,-0.2296 1.0777,-0.3073 l 0.1429,-0.0462 c 0.9323,-0.3832 1.9403,-0.5984 2.9934,-0.61 0.3512,-0.127 0.712,-0.2305 1.0814,-0.3081 0.4521,-0.1508 0.9196,-0.2622 1.3997,-0.3317 0.1956,-0.0572 0.3935,-0.1074 0.5942,-0.1499 0.2081,-0.0672 0.4076,-0.1531 0.6151,-0.2243 0.5406,-1.2529 0.7489,-2.6951 0.7489,-4.0691 v -11.787 h -4.5992 v 10.8714 c 0,2.543 -0.9598,3.8149 -2.8791,3.8149 -1.9137,0 -3.0504,-1.5245 -3.5289,-3.3954 -0.1752,-0.6865 -0.263,-1.4238 -0.263,-2.2121 v -9.0788 h -4.5995 v 10.8714 c 0,2.543 -1.0066,3.8149 -3.0195,3.8149 -1.8652,0 -2.9392,-1.5869 -3.3707,-3.3954 -0.1638,-0.6865 -0.2457,-1.4238 -0.2457,-2.2121 v -9.0788 h -4.5998 z" /><g
       transform="scale(0.99,1)"
       id="g124" /><path
       id="path126"
       style="fill:#ed3338;fill-opacity:1;fill-rule:evenodd;stroke:none"
       d="m -408.8458,272.5234 -0.0345,0.032 c -0.2314,-0.1306 -0.885,-0.7174 -1.0809,-0.9224 -0.5831,-0.6097 -2.4727,-2.2977 -3.2236,-2.9925 l -0.2449,0.2636 c 0.1693,0.2163 0.3252,0.3569 0.4964,0.5372 1.4091,1.4817 2.1458,2.2212 3.5013,3.7607 -0.4002,-0.1791 -3.812,-3.2389 -4.4815,-3.8066 l -0.2869,0.3019 4.1468,4.113 c -0.4363,-0.197 -3.0325,-2.3522 -3.5218,-2.7901 -0.523,-0.4686 -1.2481,-0.9352 -1.6543,-1.4871 -0.6494,-0.8821 -0.4218,-1.3654 -0.2732,-2.4103 -0.224,-0.2588 -1.5098,-1.3824 -1.8567,-1.6877 -0.2741,0.174 -1.6302,1.4689 -1.9919,1.7991 0.1026,0.4862 0.826,1.2056 0.2905,2.7236 -0.316,0.8971 -0.8884,1.4626 -1.5142,1.9 -0.874,0.6115 -3.6701,2.2085 -4.9757,1.0537 -1.3045,-1.154 0.3059,-4.0448 0.9454,-4.9136 1.1522,-1.5653 2.8865,-2.3017 4.7041,-1.26 l 1.8289,-1.9528 c -0.1457,-0.2271 -0.3623,-0.3387 -0.5593,-0.5287 -0.4604,-0.445 -1.7762,-1.6707 -2.2215,-2.0412 l -5.008,-4.5839 c -0.4924,-0.4192 -0.6607,-0.9924 -0.2571,-1.4213 0.4708,-0.5 1.1262,-0.2205 1.4394,0.1443 0.885,1.0312 2.1257,2.2147 3.1028,3.2893 0.6427,0.7067 1.3686,1.4808 2.0747,2.1855 l 2.0673,2.2442 c 0.2325,-0.0949 1.3249,-1.2934 1.5812,-1.5899 l 5.6985,-6.0183 c 0.2973,-0.2724 0.8379,-0.7704 1.4255,-0.2401 0.5497,0.4964 0.1616,1.1399 -0.2052,1.4429 -0.2072,0.1715 -0.3504,0.3413 -0.5491,0.5164 -0.2112,0.1868 -0.352,0.2798 -0.5595,0.5063 l -3.3307,3.0634 c -0.4902,0.4859 -1.7139,1.5183 -2.2357,2.0288 l -1.0761,1.0732 c 0.18,0.136 1.4219,1.47 1.6983,1.7569 0.4045,-0.0749 1.2977,-0.6205 2.4525,0.2642 0.7365,0.5638 3.5388,4.0274 4.335,5.1038 -0.443,-0.2263 -1.7186,-1.5767 -2.1279,-1.99 l -2.0466,-2.0931 -0.3019,0.2826 c 0.3733,0.5216 3.6002,3.8886 3.8301,4.343" /><g
       transform="scale(0.99,1)"
       id="g128" /><path
       id="path130"
       style="fill:#ed3338;fill-opacity:1;fill-rule:evenodd;stroke:none"
       d="m -408.8458,272.5234 c 0.0964,0.0567 0.0536,-0.0952 0.0885,0.1208 -0.2461,-0.0434 -0.0301,0.008 -0.123,-0.0888 z" /></g></svg>